<?xml version="1.0" encoding="UTF-8"?>
<svg xmlns="http://www.w3.org/2000/svg" xmlns:xlink="http://www.w3.org/1999/xlink" width="24px" height="24px" viewBox="0 0 24 24" version="1.1">
<g id="surface1">
<path style=" stroke:none;fill-rule:nonzero;fill:rgb(0%,0%,0%);fill-opacity:1;" d="M 7.140625 9.5625 C 6.742188 9.113281 6.859375 8.734375 7.117188 8.328125 C 9.882812 4.015625 15.875 4.007812 18.644531 8.308594 C 18.914062 8.726562 19.109375 9.175781 18.644531 9.542969 C 18.179688 9.910156 17.925781 9.441406 17.664062 9.109375 C 15.398438 6.242188 12.257812 5.683594 9.535156 7.65625 C 8.960938 8.074219 8.507812 8.625 8.070312 9.195312 C 7.835938 9.496094 7.605469 9.800781 7.140625 9.5625 Z M 7.140625 9.5625 "/>
<path style=" stroke:none;fill-rule:nonzero;fill:rgb(0%,0%,0%);fill-opacity:1;" d="M 21.109375 18.472656 C 20.746094 18.738281 20.398438 19.039062 20.035156 18.808594 C 19.679688 18.589844 19.804688 18.109375 19.828125 17.738281 C 19.949219 16.058594 19.855469 14.378906 19.796875 12.710938 C 20.710938 12.523438 21.460938 12.988281 21.617188 13.871094 C 21.832031 15.109375 21.746094 16.359375 21.617188 17.59375 C 21.582031 17.925781 21.375 18.195312 21.109375 18.472656 Z M 21.109375 18.472656 "/>
<path style=" stroke:none;fill-rule:nonzero;fill:rgb(0%,0%,0%);fill-opacity:1;" d="M 5.460938 18.871094 C 4.59375 18.648438 4.160156 18.050781 4.085938 17.167969 C 4.003906 16.144531 3.988281 15.121094 4.117188 14.101562 C 4.1875 13.578125 4.398438 13.152344 4.808594 12.878906 C 5.128906 12.667969 5.507812 12.398438 5.851562 12.640625 C 6.167969 12.859375 5.960938 13.296875 5.953125 13.640625 C 5.933594 15.109375 5.929688 16.578125 5.902344 18.046875 C 5.898438 18.371094 6.039062 18.816406 5.460938 18.871094 Z M 5.460938 18.871094 "/>
<path style=" stroke:none;fill-rule:nonzero;fill:rgb(0%,0%,0%);fill-opacity:1;" d="M 19.277344 20.859375 C 19.308594 20.433594 19.320312 20.074219 19.351562 19.714844 C 19.367188 19.511719 19.449219 19.335938 19.675781 19.34375 C 19.898438 19.347656 19.972656 19.515625 19.980469 19.730469 C 20.058594 21.296875 19.917969 22.726562 17.992188 22.753906 C 17.347656 22.765625 16.699219 22.882812 16.050781 22.871094 C 15.476562 22.859375 14.945312 22.863281 14.445312 23.339844 C 14.007812 23.753906 13.484375 23.566406 13.140625 23.046875 C 12.777344 22.503906 12.835938 21.933594 13.257812 21.46875 C 13.640625 21.046875 14.230469 20.902344 14.523438 21.378906 C 15.101562 22.308594 15.882812 22.082031 16.652344 22.117188 C 17.210938 22.140625 17.746094 22.011719 18.289062 21.929688 C 18.8125 21.855469 19.136719 21.5 19.277344 20.859375 Z M 19.277344 20.859375 "/>
<path style=" stroke:none;fill-rule:nonzero;fill:rgb(0%,0%,0%);fill-opacity:1;" d="M 7.359375 12.929688 C 7.378906 14.695312 7.382812 16.382812 7.394531 18.074219 C 7.398438 18.527344 7.355469 18.894531 6.804688 18.894531 C 6.234375 18.894531 6.253906 18.496094 6.253906 18.058594 C 6.257812 16.480469 6.25 14.902344 6.257812 13.324219 C 6.257812 13.019531 6.226562 12.671875 6.570312 12.558594 C 6.871094 12.464844 7.167969 12.488281 7.359375 12.929688 Z M 7.359375 12.929688 "/>
<path style=" stroke:none;fill-rule:nonzero;fill:rgb(0%,0%,0%);fill-opacity:1;" d="M 18.40625 17.648438 C 18.40625 16.15625 18.410156 14.742188 18.398438 13.332031 C 18.398438 12.902344 18.453125 12.546875 18.933594 12.527344 C 19.429688 12.507812 19.507812 12.90625 19.511719 13.304688 C 19.53125 14.886719 19.527344 16.460938 19.527344 18.042969 C 19.53125 18.464844 19.5625 18.890625 18.984375 18.890625 C 18.433594 18.890625 18.398438 18.515625 18.40625 18.066406 C 18.410156 17.953125 18.40625 17.84375 18.40625 17.648438 Z M 18.40625 17.648438 "/>
<path style=" stroke:none;fill-rule:nonzero;fill:rgb(0%,0%,0%);fill-opacity:1;" d="M 8.523438 14.058594 C 8.875 13.109375 9.457031 12.765625 10.238281 12.984375 C 10.851562 13.152344 11.191406 13.71875 11.148438 14.488281 C 11.101562 15.230469 10.652344 15.746094 9.960938 15.847656 C 9.101562 15.976562 8.535156 15.296875 8.523438 14.058594 Z M 8.523438 14.058594 "/>
<path style=" stroke:none;fill-rule:nonzero;fill:rgb(0%,0%,0%);fill-opacity:1;" d="M 16.261719 12.960938 C 17.035156 12.890625 17.640625 13.078125 17.851562 13.921875 C 18.019531 14.585938 17.871094 15.191406 17.316406 15.589844 C 16.664062 16.0625 15.816406 15.835938 15.445312 15.101562 C 15.023438 14.261719 15.304688 13.453125 16.261719 12.960938 Z M 16.261719 12.960938 "/>
<path style=" stroke:none;fill-rule:nonzero;fill:rgb(0%,0%,0%);fill-opacity:1;" d="M 18.898438 11.007812 C 18.789062 10.535156 18.382812 10.050781 19.078125 9.757812 C 19.476562 10.332031 19.59375 10.980469 19.773438 11.597656 C 19.835938 11.8125 19.867188 12.050781 19.609375 12.140625 C 19.382812 12.21875 19.234375 12.082031 19.160156 11.84375 C 19.078125 11.585938 19 11.328125 18.898438 11.007812 Z M 18.898438 11.007812 "/>
<path style=" stroke:none;fill-rule:nonzero;fill:rgb(0%,0%,0%);fill-opacity:1;" d="M 6.640625 9.890625 C 6.972656 9.808594 7.164062 9.984375 7.101562 10.265625 C 6.96875 10.851562 6.769531 11.421875 6.574219 11.984375 C 6.519531 12.160156 6.351562 12.207031 6.195312 12.160156 C 5.9375 12.078125 5.933594 11.824219 5.996094 11.617188 C 6.164062 11.039062 6.289062 10.441406 6.640625 9.890625 Z M 6.640625 9.890625 "/>
</g>
</svg>
