<?xml version="1.0" encoding="UTF-8"?>
<svg xmlns="http://www.w3.org/2000/svg" xmlns:xlink="http://www.w3.org/1999/xlink" width="30px" height="27px" viewBox="0 0 29 27" version="1.1" style="background-color:transparent;">
  <g id="surface1">
    <path style=" stroke:none;fill-rule:nonzero;fill:rgb(99.607843%,99.607843%,99.607843%);fill-opacity:1;" d="M 16.765625 27.15625 C 11.175781 27.15625 5.664062 27.15625 0.152344 27.15625 C 0.152344 18.15625 0.152344 9.15625 0.152344 0.15625 C 9.816406 0.15625 19.484375 0.15625 29.152344 0.15625 C 29.152344 9.15625 29.152344 18.15625 29.152344 27.15625 C 25.046875 27.15625 20.945312 27.15625 16.765625 27.15625 M 10.636719 3.082031 C 10.285156 3.28125 9.875 3.417969 9.59375 3.691406 C 8.648438 4.597656 7.714844 5.527344 6.84375 6.507812 C 6.511719 6.882812 6.5625 7.402344 6.996094 7.746094 C 7.433594 8.097656 7.792969 7.855469 8.109375 7.507812 C 8.296875 7.300781 8.46875 7.078125 8.660156 6.871094 C 10.671875 4.636719 13.121094 3.5625 16.09375 4.042969 C 18.332031 4.40625 20.042969 5.730469 21.492188 7.457031 C 21.808594 7.832031 22.144531 8.144531 22.640625 7.777344 C 23.164062 7.386719 23.109375 6.855469 22.769531 6.414062 C 22.226562 5.710938 21.679688 4.976562 21.003906 4.421875 C 17.867188 1.855469 14.414062 1.515625 10.636719 3.082031 M 5.355469 16.8125 C 5.386719 15.367188 5.414062 13.921875 5.457031 12.476562 C 5.480469 11.71875 5.132812 11.441406 4.429688 11.714844 C 3.535156 12.066406 2.941406 12.71875 2.894531 13.71875 C 2.835938 15.003906 2.828125 16.296875 2.894531 17.582031 C 2.941406 18.542969 3.5 19.203125 4.402344 19.503906 C 5.007812 19.707031 5.3125 19.46875 5.328125 18.816406 C 5.339844 18.199219 5.34375 17.578125 5.355469 16.8125 M 26.414062 18.640625 C 26.480469 18.503906 26.589844 18.375 26.613281 18.230469 C 26.890625 16.523438 27.054688 14.800781 26.613281 13.105469 C 26.328125 12 25.378906 11.566406 24.269531 11.894531 C 24.269531 13.953125 24.277344 16.011719 24.265625 18.066406 C 24.261719 18.585938 23.949219 19.304688 24.601562 19.476562 C 25.03125 19.585938 25.589844 19.195312 26.082031 19.003906 C 26.1875 18.964844 26.257812 18.828125 26.414062 18.640625 M 17.914062 24.785156 C 19.214844 24.695312 20.515625 24.613281 21.816406 24.515625 C 22.769531 24.445312 23.773438 24.296875 24.121094 23.25 C 24.390625 22.445312 24.382812 21.539062 24.445312 20.675781 C 24.453125 20.53125 24.179688 20.371094 24.039062 20.21875 C 23.894531 20.371094 23.664062 20.503906 23.621094 20.6875 C 23.539062 21.03125 23.570312 21.402344 23.542969 21.765625 C 23.460938 22.789062 23.027344 23.328125 22.027344 23.464844 C 21.011719 23.601562 19.980469 23.671875 18.957031 23.699219 C 18.269531 23.714844 17.636719 23.503906 17.15625 22.910156 C 16.65625 22.292969 16.046875 22.28125 15.445312 22.796875 C 14.777344 23.367188 14.660156 24.140625 15.136719 24.855469 C 15.605469 25.554688 16.207031 25.707031 16.871094 25.308594 C 17.167969 25.125 17.484375 24.976562 17.914062 24.785156 M 5.789062 17.296875 C 5.792969 17.839844 5.773438 18.386719 5.808594 18.925781 C 5.84375 19.527344 6.195312 19.703125 6.75 19.601562 C 7.371094 19.484375 7.371094 19 7.367188 18.535156 C 7.359375 16.542969 7.328125 14.550781 7.324219 12.558594 C 7.324219 11.976562 7.144531 11.578125 6.539062 11.5625 C 5.886719 11.546875 5.785156 12.019531 5.785156 12.566406 C 5.792969 14.09375 5.789062 15.617188 5.789062 17.296875 M 23.847656 13.140625 C 23.84375 12.960938 23.847656 12.777344 23.839844 12.597656 C 23.808594 12.042969 23.707031 11.539062 23 11.585938 C 22.316406 11.628906 22.328125 12.144531 22.332031 12.65625 C 22.335938 14.644531 22.34375 16.632812 22.332031 18.621094 C 22.328125 19.179688 22.433594 19.609375 23.085938 19.609375 C 23.730469 19.613281 23.867188 19.199219 23.863281 18.632812 C 23.847656 16.851562 23.851562 15.070312 23.847656 13.140625 M 11.109375 15.71875 C 12.25 15.269531 12.710938 14.347656 12.363281 13.210938 C 12.117188 12.394531 11.136719 11.898438 10.203125 12.121094 C 9.421875 12.308594 8.8125 13.226562 8.925781 14.054688 C 9.09375 15.265625 9.804688 15.851562 11.109375 15.71875 M 21.542969 13.253906 C 21.121094 12.371094 20.210938 11.890625 19.40625 12.125 C 18.664062 12.339844 18.003906 13.238281 18.042969 13.976562 C 18.089844 14.847656 18.816406 15.636719 19.660156 15.746094 C 20.617188 15.867188 21.96875 14.980469 21.542969 13.253906 M 23.234375 10.34375 C 23.296875 10.511719 23.3125 10.730469 23.429688 10.832031 C 23.574219 10.957031 23.808594 11.054688 23.984375 11.027344 C 24.082031 11.011719 24.238281 10.6875 24.199219 10.554688 C 23.945312 9.714844 23.648438 8.890625 23.363281 8.058594 C 22.714844 8.292969 22.601562 8.609375 22.785156 9.082031 C 22.933594 9.460938 23.058594 9.851562 23.234375 10.34375 M 5.796875 9.300781 C 5.675781 9.71875 5.511719 10.128906 5.453125 10.558594 C 5.429688 10.714844 5.617188 11 5.769531 11.058594 C 5.890625 11.105469 6.203125 10.941406 6.261719 10.796875 C 6.519531 10.15625 6.738281 9.496094 6.914062 8.824219 C 6.957031 8.65625 6.792969 8.433594 6.722656 8.234375 C 6.539062 8.320312 6.308594 8.363281 6.1875 8.507812 C 6.03125 8.695312 5.960938 8.960938 5.796875 9.300781 Z M 5.796875 9.300781 "/>
    <path style=" stroke:none;fill-rule:nonzero;fill:rgb(1.960784%,30.588236%,58.823532%);fill-opacity:1;" d="M 10.6875 3.054688 C 14.414062 1.515625 17.867188 1.855469 21.003906 4.421875 C 21.679688 4.976562 22.226562 5.710938 22.769531 6.414062 C 23.109375 6.855469 23.164062 7.386719 22.640625 7.777344 C 22.144531 8.144531 21.808594 7.832031 21.492188 7.457031 C 20.042969 5.730469 18.332031 4.40625 16.09375 4.042969 C 13.121094 3.5625 10.671875 4.636719 8.660156 6.871094 C 8.46875 7.078125 8.296875 7.300781 8.109375 7.507812 C 7.792969 7.855469 7.433594 8.097656 6.996094 7.746094 C 6.5625 7.402344 6.511719 6.882812 6.84375 6.507812 C 7.714844 5.527344 8.648438 4.597656 9.59375 3.691406 C 9.875 3.417969 10.285156 3.28125 10.6875 3.054688 Z M 10.6875 3.054688 "/>
    <path style=" stroke:none;fill-rule:nonzero;fill:rgb(2.352941%,30.980393%,59.215689%);fill-opacity:1;" d="M 5.355469 16.886719 C 5.34375 17.578125 5.339844 18.199219 5.328125 18.816406 C 5.3125 19.46875 5.007812 19.707031 4.402344 19.503906 C 3.5 19.203125 2.941406 18.542969 2.894531 17.582031 C 2.828125 16.296875 2.835938 15.003906 2.894531 13.71875 C 2.941406 12.71875 3.535156 12.066406 4.429688 11.714844 C 5.132812 11.441406 5.480469 11.71875 5.457031 12.476562 C 5.414062 13.921875 5.386719 15.367188 5.355469 16.886719 Z M 5.355469 16.886719 "/>
    <path style=" stroke:none;fill-rule:nonzero;fill:rgb(1.960784%,30.19608%,58.823532%);fill-opacity:1;" d="M 26.378906 18.6875 C 26.257812 18.828125 26.1875 18.964844 26.082031 19.003906 C 25.589844 19.195312 25.03125 19.585938 24.601562 19.476562 C 23.949219 19.304688 24.261719 18.585938 24.265625 18.066406 C 24.277344 16.011719 24.269531 13.953125 24.269531 11.894531 C 25.378906 11.566406 26.328125 12 26.613281 13.105469 C 27.054688 14.800781 26.890625 16.523438 26.613281 18.230469 C 26.589844 18.375 26.480469 18.503906 26.378906 18.6875 Z M 26.378906 18.6875 "/>
    <path style=" stroke:none;fill-rule:nonzero;fill:rgb(3.137255%,31.37255%,59.215689%);fill-opacity:1;" d="M 17.855469 24.796875 C 17.484375 24.976562 17.167969 25.125 16.871094 25.308594 C 16.207031 25.707031 15.605469 25.554688 15.136719 24.855469 C 14.660156 24.140625 14.777344 23.367188 15.445312 22.796875 C 16.046875 22.28125 16.65625 22.292969 17.15625 22.910156 C 17.636719 23.503906 18.269531 23.714844 18.957031 23.699219 C 19.980469 23.671875 21.011719 23.601562 22.027344 23.464844 C 23.027344 23.328125 23.460938 22.789062 23.542969 21.765625 C 23.570312 21.402344 23.539062 21.03125 23.621094 20.6875 C 23.664062 20.503906 23.894531 20.371094 24.039062 20.21875 C 24.179688 20.371094 24.453125 20.53125 24.445312 20.675781 C 24.382812 21.539062 24.390625 22.445312 24.121094 23.25 C 23.773438 24.296875 22.769531 24.445312 21.816406 24.515625 C 20.515625 24.613281 19.214844 24.695312 17.855469 24.796875 Z M 17.855469 24.796875 "/>
    <path style=" stroke:none;fill-rule:nonzero;fill:rgb(6.666667%,33.725491%,60.784316%);fill-opacity:1;" d="M 5.789062 17.222656 C 5.789062 15.617188 5.792969 14.09375 5.785156 12.566406 C 5.785156 12.019531 5.886719 11.546875 6.539062 11.5625 C 7.144531 11.578125 7.324219 11.976562 7.324219 12.558594 C 7.328125 14.550781 7.359375 16.542969 7.367188 18.535156 C 7.371094 19 7.371094 19.484375 6.75 19.601562 C 6.195312 19.703125 5.84375 19.527344 5.808594 18.925781 C 5.773438 18.386719 5.792969 17.839844 5.789062 17.222656 Z M 5.789062 17.222656 "/>
    <path style=" stroke:none;fill-rule:nonzero;fill:rgb(1.568628%,30.19608%,58.823532%);fill-opacity:1;" d="M 23.847656 13.214844 C 23.851562 15.070312 23.847656 16.851562 23.863281 18.632812 C 23.867188 19.199219 23.730469 19.613281 23.085938 19.609375 C 22.433594 19.609375 22.328125 19.179688 22.332031 18.621094 C 22.34375 16.632812 22.335938 14.644531 22.332031 12.65625 C 22.328125 12.144531 22.316406 11.628906 23 11.585938 C 23.707031 11.539062 23.808594 12.042969 23.839844 12.597656 C 23.847656 12.777344 23.84375 12.960938 23.847656 13.214844 Z M 23.847656 13.214844 "/>
    <path style=" stroke:none;fill-rule:nonzero;fill:rgb(1.960784%,30.19608%,58.823532%);fill-opacity:1;" d="M 11.054688 15.738281 C 9.804688 15.851562 9.09375 15.265625 8.925781 14.054688 C 8.8125 13.226562 9.421875 12.308594 10.203125 12.121094 C 11.136719 11.898438 12.117188 12.394531 12.363281 13.210938 C 12.710938 14.347656 12.25 15.269531 11.054688 15.738281 Z M 11.054688 15.738281 "/>
    <path style=" stroke:none;fill-rule:nonzero;fill:rgb(1.568628%,30.19608%,58.823532%);fill-opacity:1;" d="M 21.5625 13.316406 C 21.96875 14.980469 20.617188 15.867188 19.660156 15.746094 C 18.816406 15.636719 18.089844 14.847656 18.042969 13.976562 C 18.003906 13.238281 18.664062 12.339844 19.40625 12.125 C 20.210938 11.890625 21.121094 12.371094 21.5625 13.316406 Z M 21.5625 13.316406 "/>
    <path style=" stroke:none;fill-rule:nonzero;fill:rgb(5.098039%,32.549021%,60.000002%);fill-opacity:1;" d="M 23.210938 10.289062 C 23.058594 9.851562 22.933594 9.460938 22.785156 9.082031 C 22.601562 8.609375 22.714844 8.292969 23.363281 8.058594 C 23.648438 8.890625 23.945312 9.714844 24.199219 10.554688 C 24.238281 10.6875 24.082031 11.011719 23.984375 11.027344 C 23.808594 11.054688 23.574219 10.957031 23.429688 10.832031 C 23.3125 10.730469 23.296875 10.511719 23.210938 10.289062 Z M 23.210938 10.289062 "/>
    <path style=" stroke:none;fill-rule:nonzero;fill:rgb(4.313726%,32.156864%,60.000002%);fill-opacity:1;" d="M 5.824219 9.246094 C 5.960938 8.960938 6.03125 8.695312 6.1875 8.507812 C 6.308594 8.363281 6.539062 8.320312 6.722656 8.234375 C 6.792969 8.433594 6.957031 8.65625 6.914062 8.824219 C 6.738281 9.496094 6.519531 10.15625 6.261719 10.796875 C 6.203125 10.941406 5.890625 11.105469 5.769531 11.058594 C 5.617188 11 5.429688 10.714844 5.453125 10.558594 C 5.511719 10.128906 5.675781 9.71875 5.824219 9.246094 Z M 5.824219 9.246094 "/>
  </g>
</svg>
