<svg xmlns="http://www.w3.org/2000/svg" xmlns:xlink="http://www.w3.org/1999/xlink" width="30px" height="27px" viewBox="0 0 30 27" version="1.1">
<g id="surface1">
<path style=" stroke:none;fill-rule:nonzero;fill:#1b62b3;fill-opacity:1;" d="M 8.925781 10.757812 C 8.425781 10.253906 8.574219 9.828125 8.898438 9.371094 C 12.351562 4.519531 19.84375 4.507812 23.304688 9.347656 C 23.640625 9.816406 23.886719 10.324219 23.304688 10.734375 C 22.726562 11.148438 22.40625 10.621094 22.082031 10.25 C 19.25 7.023438 15.324219 6.394531 11.917969 8.613281 C 11.203125 9.082031 10.636719 9.703125 10.085938 10.34375 C 9.792969 10.683594 9.507812 11.027344 8.925781 10.757812 Z M 8.925781 10.757812 "/>
<path style=" stroke:none;fill-rule:nonzero;fill:#1b62b3;fill-opacity:1;" d="M 26.386719 20.78125 C 25.933594 21.082031 25.5 21.417969 25.042969 21.160156 C 24.597656 20.914062 24.753906 20.371094 24.785156 19.957031 C 24.9375 18.066406 24.820312 16.175781 24.746094 14.300781 C 25.890625 14.089844 26.824219 14.613281 27.019531 15.605469 C 27.289062 16.996094 27.183594 18.402344 27.019531 19.792969 C 26.976562 20.167969 26.71875 20.46875 26.386719 20.78125 Z M 26.386719 20.78125 "/>
<path style=" stroke:none;fill-rule:nonzero;fill:#1b62b3;fill-opacity:1;" d="M 6.828125 21.230469 C 5.742188 20.980469 5.199219 20.308594 5.109375 19.3125 C 5.003906 18.164062 4.984375 17.011719 5.148438 15.863281 C 5.234375 15.273438 5.5 14.796875 6.011719 14.488281 C 6.410156 14.25 6.882812 13.949219 7.3125 14.21875 C 7.710938 14.464844 7.449219 14.957031 7.441406 15.347656 C 7.417969 17 7.410156 18.652344 7.378906 20.300781 C 7.371094 20.667969 7.550781 21.167969 6.828125 21.230469 Z M 6.828125 21.230469 "/>
<path style=" stroke:none;fill-rule:nonzero;fill:#1b62b3;fill-opacity:1;" d="M 24.097656 23.46875 C 24.136719 22.988281 24.148438 22.582031 24.1875 22.179688 C 24.210938 21.949219 24.3125 21.753906 24.59375 21.761719 C 24.875 21.765625 24.964844 21.957031 24.976562 22.195312 C 25.074219 23.960938 24.898438 25.566406 22.488281 25.597656 C 21.683594 25.609375 20.875 25.742188 20.0625 25.730469 C 19.347656 25.71875 18.683594 25.722656 18.058594 26.257812 C 17.507812 26.722656 16.855469 26.511719 16.425781 25.929688 C 15.972656 25.316406 16.042969 24.675781 16.574219 24.152344 C 17.050781 23.675781 17.789062 23.515625 18.15625 24.050781 C 18.878906 25.097656 19.855469 24.84375 20.816406 24.882812 C 21.511719 24.910156 22.183594 24.761719 22.859375 24.671875 C 23.515625 24.585938 23.921875 24.1875 24.097656 23.46875 Z M 24.097656 23.46875 "/>
<path style=" stroke:none;fill-rule:nonzero;fill:#1b62b3;fill-opacity:1;" d="M 9.199219 14.546875 C 9.222656 16.53125 9.230469 18.429688 9.242188 20.332031 C 9.246094 20.84375 9.195312 21.257812 8.507812 21.257812 C 7.792969 21.257812 7.816406 20.808594 7.816406 20.316406 C 7.820312 18.539062 7.8125 16.765625 7.820312 14.988281 C 7.820312 14.648438 7.785156 14.253906 8.214844 14.128906 C 8.589844 14.023438 8.960938 14.050781 9.199219 14.546875 Z M 9.199219 14.546875 "/>
<path style=" stroke:none;fill-rule:nonzero;fill:#1b62b3;fill-opacity:1;" d="M 23.007812 19.855469 C 23.007812 18.175781 23.011719 16.585938 23 15 C 23 14.515625 23.066406 14.113281 23.667969 14.09375 C 24.289062 14.070312 24.386719 14.519531 24.390625 14.96875 C 24.414062 16.746094 24.410156 18.519531 24.410156 20.296875 C 24.414062 20.773438 24.453125 21.253906 23.730469 21.253906 C 23.042969 21.253906 22.996094 20.832031 23.007812 20.324219 C 23.011719 20.199219 23.007812 20.074219 23.007812 19.855469 Z M 23.007812 19.855469 "/>
<path style=" stroke:none;fill-rule:nonzero;fill:#1b62b3;fill-opacity:1;" d="M 10.652344 15.816406 C 11.09375 14.746094 11.820312 14.359375 12.796875 14.605469 C 13.5625 14.796875 13.988281 15.433594 13.933594 16.300781 C 13.878906 17.132812 13.316406 17.714844 12.453125 17.828125 C 11.378906 17.972656 10.667969 17.210938 10.652344 15.816406 Z M 10.652344 15.816406 "/>
<path style=" stroke:none;fill-rule:nonzero;fill:#1b62b3;fill-opacity:1;" d="M 20.328125 14.582031 C 21.292969 14.5 22.050781 14.714844 22.316406 15.664062 C 22.523438 16.410156 22.339844 17.089844 21.644531 17.539062 C 20.828125 18.070312 19.769531 17.816406 19.304688 16.988281 C 18.777344 16.042969 19.132812 15.136719 20.328125 14.582031 Z M 20.328125 14.582031 "/>
<path style=" stroke:none;fill-rule:nonzero;fill:#1b62b3;fill-opacity:1;" d="M 23.625 12.382812 C 23.484375 11.851562 22.980469 11.308594 23.847656 10.976562 C 24.347656 11.625 24.492188 12.351562 24.71875 13.046875 C 24.796875 13.289062 24.835938 13.558594 24.511719 13.65625 C 24.226562 13.746094 24.042969 13.59375 23.949219 13.324219 C 23.847656 13.035156 23.75 12.742188 23.625 12.382812 Z M 23.625 12.382812 "/>
<path style=" stroke:none;fill-rule:nonzero;fill:#1b62b3;fill-opacity:1;" d="M 8.300781 11.125 C 8.714844 11.035156 8.957031 11.234375 8.878906 11.546875 C 8.710938 12.207031 8.460938 12.847656 8.21875 13.484375 C 8.148438 13.679688 7.941406 13.734375 7.746094 13.679688 C 7.421875 13.585938 7.417969 13.300781 7.496094 13.070312 C 7.703125 12.417969 7.859375 11.746094 8.300781 11.125 Z M 8.300781 11.125 "/>
</g>
</svg>